<?xml version="1.0" encoding="utf-8"?>
<!-- Generator: Adobe Illustrator 20.1.0, SVG Export Plug-In . SVG Version: 6.00 Build 0)  -->
<svg version="1.1" id="Layer_1" xmlns="http://www.w3.org/2000/svg" xmlns:xlink="http://www.w3.org/1999/xlink" x="0px" y="0px"
	 viewBox="0 0 135.8 132.4" style="enable-background:new 0 0 135.8 132.4;" xml:space="preserve">
<style type="text/css">
	.st0{fill:#C61414;}
	.st1{fill:#9E1818;}
	.st2{fill:#AA1B1B;}
	.st3{fill:#BC1E1E;}
	.st4{fill:#8E1717;}
	.st5{fill:#871616;}
	.st6{fill:#911717;}
	.st7{fill:#961818;}
</style>
<polygon class="st0" points="122.4,106.2 67.9,132.4 13.4,106.2 0,47.2 37.7,0 98.1,0 135.8,47.3 "/>
<polygon class="st1" points="97.2,84.2 67.9,98.3 38.6,84.2 31.4,52.6 51.7,27.2 84.1,27.2 104.4,52.6 "/>
<polygon class="st2" points="31.4,52.6 0,47.2 37.7,0 51.7,27.2 "/>
<polygon class="st3" points="84.1,27.2 51.7,27.2 37.7,0 98.1,0 "/>
<polygon class="st2" points="104.4,52.6 84.1,27.2 98.1,0 135.8,47.3 "/>
<polygon class="st4" points="122.4,106.2 97.2,84.2 104.4,52.6 135.8,47.3 "/>
<polygon class="st5" points="38.6,84.2 13.4,106.2 0,47.2 31.4,52.6 "/>
<polygon class="st6" points="67.9,132.4 13.4,106.2 38.6,84.2 67.9,98.3 "/>
<polygon class="st7" points="122.4,106.2 67.9,132.4 67.9,98.3 97.2,84.2 "/>
</svg>
