<?xml version="1.0" encoding="utf-8"?>
<!-- Generator: Adobe Illustrator 20.1.0, SVG Export Plug-In . SVG Version: 6.00 Build 0)  -->
<svg version="1.1" id="Layer_1" xmlns="http://www.w3.org/2000/svg" xmlns:xlink="http://www.w3.org/1999/xlink" x="0px" y="0px"
	 viewBox="0 0 300 299.7" style="enable-background:new 0 0 300 299.7;" xml:space="preserve">
<style type="text/css">
	.st0{fill:#F4E025;}
	.st1{fill:#EFDA20;}
	.st2{fill:#E5C613;}
	.st3{fill:#CEAF17;}
	.st4{fill:#C9A81F;}
	.st5{fill:#DDB91F;}
	.st6{fill:#FCE227;}
	.st7{fill:#EFC929;}
</style>
<g>
	<polygon class="st0" points="260,299.7 40,299.7 0,264.2 0,42 40,0 260,0 300,42 300,262.4 	"/>
</g>
<g>
	<polygon class="st1" points="226.8,254.5 73.2,254.5 45.3,229.7 45.3,74.6 73.2,45.3 226.8,45.3 254.7,74.6 254.7,228.4 	"/>
</g>
<polygon class="st2" points="45.3,74.6 0,42 40,0 73.2,45.3 "/>
<polygon class="st3" points="45.3,229.7 0,264.2 0,42 45.3,74.6 "/>
<polygon class="st4" points="40,299.7 0,264.2 45.3,229.7 73.2,254.5 "/>
<polygon class="st5" points="40,299.7 260,299.7 226.8,254.5 73.2,254.5 "/>
<polygon class="st0" points="226.8,45.3 73.2,45.3 40,0 260,0 "/>
<polygon class="st6" points="254.7,74.6 226.8,45.3 260,0 300,42 "/>
<polygon class="st7" points="300,262.4 260,299.7 226.8,254.5 254.7,228.4 "/>
</svg>
