<?xml version="1.0" encoding="utf-8"?>
<!-- Generator: Adobe Illustrator 20.1.0, SVG Export Plug-In . SVG Version: 6.00 Build 0)  -->
<svg version="1.1" id="Layer_1" xmlns="http://www.w3.org/2000/svg" xmlns:xlink="http://www.w3.org/1999/xlink" x="0px" y="0px"
	 viewBox="0 0 200.5 178.5" style="enable-background:new 0 0 200.5 178.5;" xml:space="preserve">
<style type="text/css">
	.st0{fill:#0DCE0D;}
	.st1{fill:#12AD12;}
	.st2{fill:#0FBC0F;}
	.st3{fill:#149914;}
</style>
<path class="st0" d="M99.5,0C57.8,57.5,25.9,115,0,172.5c66.8,8,133.7,8,200.5,0C176.5,116.4,141.3,57.2,99.5,0z"/>
<path class="st1" d="M99.7,37.5C79.1,72.3,58.9,109.4,35,149.6c43.4,5.2,86.9,5.2,130.3,0C149.1,113.3,126.3,74.8,99.7,37.5z"/>
<path class="st2" d="M99.7,37.5L35,149.6L0,172.5C25.8,114.3,58.7,56.8,99.5,0L99.7,37.5z"/>
<path class="st3" d="M165.3,149.6L99.7,37.5L99.5,0c41.9,57.7,76.2,115.2,101,172.5L165.3,149.6z"/>
</svg>
